<svg xmlns="http://www.w3.org/2000/svg" width="61.971" height="71.977" viewBox="0 0 61.971 71.977">
  <path id="Icon_material-account-circle" data-name="Icon material-account-circle" d="M33.985,3C16.881,3,3,19.123,3,38.988S16.881,74.977,33.985,74.977,64.971,58.854,64.971,38.988,51.089,3,33.985,3Zm0,10.8c5.144,0,9.3,4.822,9.3,10.8s-4.152,10.8-9.3,10.8-9.3-4.822-9.3-10.8S28.842,13.8,33.985,13.8Zm0,51.1c-7.746,0-14.594-4.607-18.591-11.588.093-7.162,12.394-11.084,18.591-11.084,6.166,0,18.5,3.923,18.591,11.084C48.579,60.293,41.732,64.9,33.985,64.9Z" transform="translate(-3 -3)" fill="#d9a273"/>
</svg>
