<svg xmlns="http://www.w3.org/2000/svg" width="77.212" height="62" viewBox="0 0 77.212 62">
  <path id="Icon_awesome-shopping-cart" data-name="Icon awesome-shopping-cart" d="M70.794,36.488,77.131,11.3a3,3,0,0,0-3.137-3.55H21.342L20.113,2.324A3.155,3.155,0,0,0,16.961,0H3.217A3.074,3.074,0,0,0,0,2.906V4.844A3.074,3.074,0,0,0,3.217,7.75h9.368L22,49.338a6.694,6.694,0,0,0-3.771,5.881c0,3.745,3.361,6.781,7.507,6.781s7.507-3.036,7.507-6.781a6.458,6.458,0,0,0-2.255-4.844h28.1a6.458,6.458,0,0,0-2.255,4.844C56.837,58.964,60.2,62,64.343,62s7.507-3.036,7.507-6.781a6.762,6.762,0,0,0-4.233-6.1l.74-2.94a3,3,0,0,0-3.137-3.55H29.238l-.877-3.875h39.3A3.165,3.165,0,0,0,70.794,36.488Z" fill="#d9a273"/>
</svg>
