<svg xmlns="http://www.w3.org/2000/svg" width="59.299" height="59.44" viewBox="0 0 59.299 59.44">
  <path id="Icon_awesome-phone-alt" data-name="Icon awesome-phone-alt" d="M57.608,42,44.636,36.43a2.775,2.775,0,0,0-3.243.8l-5.745,7.035A42.981,42.981,0,0,1,15.126,23.7l7.019-5.758a2.784,2.784,0,0,0,.8-3.251l-5.559-13A2.8,2.8,0,0,0,14.2.071L2.154,2.857A2.785,2.785,0,0,0,0,5.572,53.8,53.8,0,0,0,53.741,59.44a2.781,2.781,0,0,0,2.71-2.159l2.78-12.074A2.822,2.822,0,0,0,57.608,42Z" transform="translate(0 0)" fill="#457abf"/>
</svg>
